<svg xmlns="http://www.w3.org/2000/svg" viewBox="0 0 464.55 55.06"><defs><style>.cls-1{fill:#252122;}.cls-2{fill:#97a5ad;}</style></defs><title>Artboard 7</title><g id="Layer_2" data-name="Layer 2"><path class="cls-1" d="M0,.67H10.28c3.24,0,6.55,0,8.9,2.1a5.79,5.79,0,0,1,2,4.41c0,4.56-4.2,5.52-5.48,5.84v.07c1.6.29,6.19,1.11,6.19,6.37a6.3,6.3,0,0,1-3.56,5.84c-2,1.07-4.63,1.07-6.94,1.07H0ZM6.9,11h3.35a5.42,5.42,0,0,0,2.49-.32A2.81,2.81,0,0,0,14.1,8.22a2.94,2.94,0,0,0-1-2.28,3.41,3.41,0,0,0-2.31-.6H6.9Zm0,10.64h4c.82,0,3.67,0,3.67-3s-2.92-3.1-3.88-3.1H6.94Z"/><path class="cls-1" d="M42.6,14.88v4.23H32.49V14.88Z"/><path class="cls-1" d="M60.39,18.19c0,1,.11,4,4.34,4,.61,0,3.81,0,3.81-2.92,0-1.21-.5-2-2.21-2.49L60,15.13c-1.78-.46-6.37-1.67-6.37-7,0-4.16,3.13-8,10.82-8,10,0,10.46,5.45,10.5,8.19H67.76c0-.78,0-3.56-3.38-3.56C62.31,4.66,61,5.84,61,7.37c0,1.88,1.56,2.35,2.6,2.63l4.8,1.24c3.42.89,7.48,2,7.48,7.4,0,5.73-4.91,8.29-11.35,8.29-2.67,0-7-.42-9.33-3.06a8.39,8.39,0,0,1-2-5.7Z"/><path class="cls-1" d="M87.75.67h7.33v25.7H87.75Z"/><path class="cls-1" d="M108.25.67h10.86c3.06,0,7.12.32,9.79,2.14,3.81,2.6,4.84,6.83,4.84,10.64,0,5.7-1.81,9.89-7,11.92a22,22,0,0,1-7.55,1H108.25Zm7.3,20.75h3.06c4.73,0,7.76-2.06,7.76-8,0-7.8-5.84-7.8-8-7.8l-2.81,0Z"/><path class="cls-1" d="M145.94.75h19.29V5.66H153V11h11.53v4.91H153v5.48h12.53v5H145.94Z"/><path class="cls-1" d="M196.86.67H206c3.13,0,4.88.32,6.48,1.89a6.13,6.13,0,0,1,1.81,4.59A5.75,5.75,0,0,1,210,13c1.5.43,5.13,1.49,5.13,6.41A6.88,6.88,0,0,1,212,25.2c-1.78,1.18-3.77,1.18-5.8,1.18h-9.36Zm3.45,10.86h5c1.21,0,5.34,0,5.34-4.06,0-3.88-3.24-3.88-5.2-3.88h-5.12Zm0,12h6.09c2.81,0,5.05-1.5,5.05-4.45,0-2.56-1.78-4.45-4.91-4.45h-6.23Z"/><path class="cls-1" d="M230.81,3.45A11.45,11.45,0,0,1,239.39,0C246.51,0,251,4.56,251,13.28c0,6.84-2.74,13.7-11.89,13.7-8.76,0-11.6-6.23-11.6-13.28C227.5,10.78,228,6.48,230.81,3.45Zm2.7,18.15A7,7,0,0,0,239.21,24a7.1,7.1,0,0,0,5.7-2.35c2.1-2.56,2.31-6.62,2.31-8.36C247.22,7.4,245.3,3,239.43,3c-6.51,0-8.19,5.23-8.19,10.5C231.24,16.3,231.74,19.4,233.52,21.6Z"/><path class="cls-1" d="M266.68,3.45A11.47,11.47,0,0,1,275.26,0c7.12,0,11.61,4.56,11.61,13.28,0,6.84-2.74,13.7-11.89,13.7-8.76,0-11.6-6.23-11.6-13.28C263.37,10.78,263.87,6.48,266.68,3.45Zm2.71,18.15a7,7,0,0,0,5.7,2.35,7.09,7.09,0,0,0,5.69-2.35c2.1-2.56,2.32-6.62,2.32-8.36C283.09,7.4,281.17,3,275.3,3c-6.51,0-8.19,5.23-8.19,10.5C267.11,16.3,267.61,19.4,269.39,21.6Z"/><path class="cls-1" d="M300.46.67H304V11.92L314.69.67h4.88l-11.5,11.5,12.74,14.2h-5L304,12.74V26.38h-3.52Z"/><path class="cls-1" d="M365.76,7.62c-.14-.89-.61-4.45-5.55-4.45-6.19,0-7.3,6.34-7.3,10.61,0,4.84,1.38,10.07,7.26,10.07a5.56,5.56,0,0,0,4.16-1.53,5.05,5.05,0,0,0,1.25-2.7h3.91c-.53,5.05-5.2,7.15-9.61,7.15-9,0-10.79-8-10.79-13C349.1,8.4,351.2.32,360.35.32c3.63,0,8.76,1.46,9.22,7.3Z"/><path class="cls-1" d="M382.37.67h3.52V23.21h12v3.17H382.37Z"/><path class="cls-1" d="M413.91.67V16.59c0,2.74.6,3.88,1.14,4.63a7.05,7.05,0,0,0,5.87,2.53c6.94,0,6.94-5.45,6.94-7.29V.67h3.46V16.52a10.45,10.45,0,0,1-2.1,6.83c-2.53,3.17-6.44,3.56-8.3,3.56-2.42,0-6.69-.68-9.08-4.09-.78-1.14-1.49-2.63-1.49-6.48V.67Z"/><path class="cls-1" d="M446.29.67h9.18c3.13,0,4.88.32,6.48,1.89a6.11,6.11,0,0,1,1.82,4.59,5.75,5.75,0,0,1-4.34,5.8c1.49.43,5.13,1.49,5.13,6.41a6.88,6.88,0,0,1-3.1,5.84c-1.78,1.18-3.77,1.18-5.8,1.18h-9.36Zm3.45,10.86h5c1.21,0,5.34,0,5.34-4.06,0-3.88-3.24-3.88-5.2-3.88h-5.13Zm0,12h6.09c2.81,0,5.05-1.5,5.05-4.45,0-2.56-1.78-4.45-4.91-4.45h-6.23Z"/><path class="cls-2" d="M79.5,50h4V51.2h-4Z"/><path class="cls-2" d="M102.34,43.27H104l4.66,11.52H107l-1.24-3h-5.35l-1.24,3H97.49Zm-1.45,7.23h4.35l-2.12-5.65Z"/><path class="cls-2" d="M115.17,43.27h2.22l5.67,9.52V43.27h1.47V54.79h-2L116.62,45v9.78h-1.45Z"/><path class="cls-2" d="M144.27,43.27H146l4.66,11.52h-1.74l-1.24-3H142.3l-1.24,3h-1.64Zm-1.45,7.23h4.35L145,44.85Z"/><path class="cls-2" d="M173.14,46.38a2.19,2.19,0,0,0-2.49-2c-2.77,0-3.27,2.84-3.27,4.75,0,2.17.62,4.51,3.25,4.51A2.51,2.51,0,0,0,172.5,53a2.29,2.29,0,0,0,.56-1.21h1.75C174.58,54,172.49,55,170.51,55c-4.05,0-4.83-3.57-4.83-5.81,0-2.42.94-6,5-6,1.63,0,3.93.66,4.13,3.27Z"/><path class="cls-2" d="M185.22,43.27h1.71l4.66,11.52h-1.74l-1.24-3h-5.35l-1.24,3h-1.64Zm-1.45,7.23h4.36L186,44.85Z"/><path class="cls-2" d="M197.93,43.27h3.86c1.4,0,2.36.08,3.14.92a3.13,3.13,0,0,1,.85,2.24,3,3,0,0,1-.91,2.25c-.61.6-1.4,1-3.48,1h-1.87v5.12h-1.59Zm1.59,5.05h1.9c1.05,0,2.66-.08,2.66-2s-1.5-1.8-2.33-1.8h-2.24Z"/><path class="cls-2" d="M212.46,43.27h3.86c1.4,0,2.36.08,3.14.92a3.13,3.13,0,0,1,.85,2.24,3,3,0,0,1-.91,2.25c-.61.6-1.4,1-3.48,1h-1.87v5.12h-1.59Zm1.59,5.05H216c1.05,0,2.66-.08,2.66-2s-1.5-1.8-2.33-1.8h-2.24Z"/><path class="cls-2" d="M226.81,43.27H234v1.36H228.4v3.59h5.36v1.34H228.4v3.83h5.76v1.4h-7.35Z"/><path class="cls-2" d="M241.61,43.27h1.58v10.1h5.36v1.42h-6.94Z"/><path class="cls-2" d="M255.26,43.27h1.58v10.1h5.36v1.42h-6.94Z"/><path class="cls-2" d="M272.43,43.27h1.71l4.66,11.52h-1.74l-1.24-3h-5.35l-1.24,3h-1.64ZM271,50.5h4.36l-2.12-5.65Z"/><path class="cls-2" d="M302.17,46.14c-.18-1.07-1-1.8-2.6-1.8a3.32,3.32,0,0,0-2.6,1,5.55,5.55,0,0,0-1.23,3.7,6,6,0,0,0,1.05,3.62,4,4,0,0,0,3.07,1.13,8,8,0,0,0,2.5-.37V50h-2.63V48.66h4.23v5.68a12.54,12.54,0,0,1-4.1.7,5.46,5.46,0,0,1-4.18-1.44,6.16,6.16,0,0,1-1.61-4.39c0-1.15.29-3.86,2.47-5.33a6,6,0,0,1,3.21-.81,4.55,4.55,0,0,1,3.4,1.23,2.64,2.64,0,0,1,.76,1.84Z"/><path class="cls-2" d="M311.53,43.27h4.12a5.13,5.13,0,0,1,2.64.54,2.71,2.71,0,0,1,1.28,2.35A2.8,2.8,0,0,1,317.4,49c1.1.29,1.59.78,1.75,2.22a15.38,15.38,0,0,0,.72,3.62h-1.71a20.08,20.08,0,0,1-.53-3c-.19-1.68-.59-2.15-2.52-2.15h-2v5.2h-1.58Zm1.55,5h2.52a3.68,3.68,0,0,0,1.51-.26,1.62,1.62,0,0,0,.78-1.5c0-1.87-1.66-1.87-2.29-1.87h-2.52Z"/><path class="cls-2" d="M328,44.52A5.15,5.15,0,0,1,331.85,43c3.19,0,5.2,2,5.2,6,0,3.06-1.23,6.14-5.33,6.14-3.92,0-5.2-2.79-5.2-6A6.76,6.76,0,0,1,328,44.52Zm1.21,8.14a3.61,3.61,0,0,0,5.1,0,6.29,6.29,0,0,0,1-3.75c0-2.62-.86-4.6-3.49-4.6-2.92,0-3.67,2.35-3.67,4.71A5.81,5.81,0,0,0,329.22,52.65Z"/><path class="cls-2" d="M345.86,43.27V50.4a3.24,3.24,0,0,0,.51,2.08A3.15,3.15,0,0,0,349,53.61c3.11,0,3.11-2.44,3.11-3.27V43.27h1.55v7.1a4.67,4.67,0,0,1-.94,3.06A4.72,4.72,0,0,1,349,55a5,5,0,0,1-4.07-1.83,4.59,4.59,0,0,1-.67-2.9v-7Z"/><path class="cls-2" d="M361.38,43.27h3.86c1.41,0,2.36.08,3.14.92a3.13,3.13,0,0,1,.85,2.24,3.05,3.05,0,0,1-.91,2.25c-.61.6-1.4,1-3.48,1H363v5.12h-1.6Zm1.6,5.05h1.9c1.05,0,2.66-.08,2.66-2s-1.5-1.8-2.33-1.8H363Z"/><path class="cls-2" d="M384.4,50h4V51.2h-4Z"/></g></svg>