<svg id="7531fabb-4b6e-44de-b1f1-b89c94be16d6" data-name="Layer 1" xmlns="http://www.w3.org/2000/svg" viewBox="0 0 576 576"><title>Artboard 2</title><polygon points="255.37 60.92 411.76 69.2 417.56 78.3 417.56 434.12 404.32 448.19 367.91 451.5 168.48 448.19 163.51 423.37 159.38 74.99 168.48 66.71 255.37 60.92" style="fill:#fff"/><path d="M265.57,243.8l-5.24,3.86-5.79,2.76-4.41,5.79-5.24,2.48-7.45,1.38-7.72,8.55L227.78,283l-3.31,8.27L221.71,297l-3,9.1,2.48,8.83,7.17,9.65,2.76,9.1,1.93,7.72,6.07,4.14-11-.55-5,.28-5.52-2.21-11,1.38s-7.72,1.38-8.55,1.1-8.83-5.79-8.83-5.79l-6.07-5.24-16.55-11.31-4.14-34.75,3.58-9.93,6.9-5.52.55-10.48,3-11.86,10.21-5,6.07-1.38,7.17-9.65,9.38-5.24H225l2.76-3.59h9.65L243,227.8l1.65,5.24,3.86,2.21,8.28-.28,7.17,3.31Z" style="fill:#fff"/><path d="M317.7,253.18,295.91,251s-13.24-5-19.86-.83-17.65,2.48-19.31,12.41l-6.07,3.59-9.1,5.52s-5.51,9.93-5.24,13.24,3.31,8.55,1.66,9.65-7.72,4.41-7.72,4.41l-1.66,7.72,5.52,8.55,4.69,3.86,3.56,13.08,4.16,1.82L257,340.06l5.79,6.9,11.31,3,8-.28,8-1.93-1.93-4.69,14.62,4.69,13.24,1.1s8-5.52,8.83-5.52,10.76-13,10.76-13l7.45-15.72L342.53,302l-6.62-16.83-3.26-12.48-6.12-9.87Z" style="fill:#fff"/><path d="M361,233l9.93,1.38,9.65-1.66,10.48,3.31,3.86,3.31,4.14,8.28.55,4.69,9.65,8.28,5.52,16,4.69,40.55-6.62,15.72L404.59,345l-9.65,4.41-5.52,2.21-2.21,2.48L384.46,358,374,356.62l-9.65-4.69-6.9-4.41-5.52,4.14-6.34,1.65-6.62.83-2.21-3.86,1.93-6.62s7.45-14.34,8.55-14.34,4.69-6.9,4.69-6.9,3.59-7.17,1.38-12.69-3.59-11-3-13.52.28-7.72-1.65-9.65-4.69-5.79-4.69-8-4.41-20.69-7.72-22.89a55,55,0,0,1-6.9-5.79s5-10.21,11.59-9.1,14.89-5.52,15.72-6.07A32,32,0,0,1,361,233Z" style="fill:#fff"/><polygon points="322.94 148.91 339.77 172.91 351.91 195.53 366.52 221.46 351.63 227.8 345.01 230.84 334.25 231.11 327.36 236.9 320.46 243.8 311.64 241.87 304.19 242.14 298.95 244.07 287.91 241.87 274.67 241.87 267.5 231.94 261.99 227.8 254.81 226.7 250.95 220.63 244.33 215.66 234.96 215.94 231.37 215.39 258.95 157.19 272.47 124.36 289.02 77.19 292.6 75.82 319.91 138.43 322.94 148.91" style="fill:#fff"/><polygon points="292.6 75.82 323.22 146.98 316.05 149.19 314.12 153.6 305.84 149.46 303.36 159.12 287.36 151.12 281.85 156.36 275.78 151.95 259.78 162.43 260.88 155.26 287.64 79.68 292.6 75.82" style="fill:#fff"/><g id="54057335-b712-4ba7-9640-d659e02bf4e6" data-name="v0cYeo"><path d="M263.54,457.56c-4.27-1.06-9.27-.56-13.64-.69-6.56-.19-13.09-.6-19.64-.87-9.57-.4-19.39.45-28.9-.77-3.18-.41-6.26-1.21-9.49-.93a43.94,43.94,0,0,1-9.13.29,52.88,52.88,0,0,1-12.64-3c-3.13-1.18-8.56-2.76-9.21-6.59a12.13,12.13,0,0,1-.14-2.08c0-3.08.17-6.15,0-9.23-.12-2.15,0-4.3-.24-6.44a25.42,25.42,0,0,1-.21-4.26c.07-1.06.12-2.11.15-3.17.15-4.43-.7-8.79-.68-13.23,0-4.92.47-9.83.4-14.74,0-3.4-1.09-6.16-.65-9.67a90.1,90.1,0,0,0,.76-10.42c.06-7.75.3-15.58-.21-23.32s-2-15.19-2.11-22.92c-.11-9.17.47-18.33.41-27.49-.09-12.1-.16-24.19-.34-36.28-.07-4.25.51-8.46.54-12.7.06-8.56-.73-17.15-.81-25.71-.07-8.91,0-17.83-.3-26.74-.17-5.09-.45-10.17-.94-15.24-1-10.06-1.39-20.47-1.45-30.57-.05-9.34.06-18.68-.59-28-1.06-15.21-2.62-32,.45-47.08.74-3.63,1.9-7.3,4.33-10.17,3.13-3.7,7.5-6.74,12.48-6.06,4.7.64,9.32-.19,14-.5,5.21-.35,10.44-.52,15.64-1.07,3.77-.39,7.92-.07,11.8-.25,4.1-.19,8.16-.72,12.26-.77,9.33-.11,18.44-.48,27.74-1.17,5.35-.4,10.72.15,16.07-.08,5.51-.23,11-.81,16.49-.55s10.47-.33,15.84-.55c7.74-.33,15.69.14,23.43.46,14.62.59,29.25,1,43.87,1.57,12.45.51,25.44,1.58,37.57,4.61A23.17,23.17,0,0,1,415.2,65c2.2,1.7,4.95,4,5.81,6.75,1.15,3.66.34,8.33.65,12.14.21,2.55-.64,5.07-.43,7.65.39,4.69-.15,9.55,0,14.37s-.59,9.83-.44,14.77c.26,8.56-.81,17.11-1,25.67-.23,9,0,18.1.48,27.13a182.07,182.07,0,0,1-.18,18.7,81.89,81.89,0,0,0-.39,9.39c.17,2.85.9,6,.56,8.72-1.77,14.42-1,30,.16,44.42.65,7.83.46,15.69,1.3,23.46.41,3.79-.34,7.77-.21,11.62s-.26,7.37-.28,11.09.47,7.77.35,11.63c-.11,3.66.82,7.15.59,10.82-1,15.82-.44,31.51-.15,47.33.33,18.23,1.71,36.78.21,54.95-.37,4.54.06,9.61-1.37,14-1.84,5.61-7.33,8.61-12.16,11.29a6.38,6.38,0,0,1-2.71.88,5,5,0,0,0-2,.57,10,10,0,0,1-3.39,1.05c-7,.8-14.12,1.28-21.12,2.18-5.9.76-12.1.57-18,.81-12.27.5-24.57.39-36.86.65-13,.27-26-.84-39-.78-3.76,0-7.51.4-11.27.45C271,456.77,266.57,456.3,263.54,457.56Zm18.35-66.72a11.82,11.82,0,0,0,.14-1.22c0-1.26,0-2.51,0-3.77-.16-3.8-.42-7.59-.36-11.4a17.76,17.76,0,0,0,0-1.88c-.39-4.43,2.37-15-1.53-18.46-.86-.77-2.12-1.91-3-2.62-1.31-1-1-.79-2.88-.3a9.44,9.44,0,0,1-4.6.24,21.44,21.44,0,0,1-8.44-3.65c-2.2-1.58-3.54-4.57-5.78-5.84a64.71,64.71,0,0,1-13-9.76,12,12,0,0,1-3.76-5.92c-.83-4.06-.8-6.59-4.93-8.65s-8.29-6.6-7.4-11.7a18.54,18.54,0,0,1,3.43-8.08c1.47-1.94,5.26-3.83,5.89-6.13a3.83,3.83,0,0,0,0-1.66,41,41,0,0,1-1-4.55,51.39,51.39,0,0,1,.15-6.35c0-.36,0-.78.33-1,.6-.44.65-1.09.84-1.72a8.2,8.2,0,0,1,1.84-3.57,8.92,8.92,0,0,0,1.11-1.38,14.36,14.36,0,0,1,3.31-3.79c2.75-2,5.93-2.91,9-4.22,2.28-1,1.95-3.16,3-5.14,3.45-6.36,12.82-6.44,18.63-9.3a17.73,17.73,0,0,1,8.71-1.89c6.3.13,12.45.34,18.74.73A53.57,53.57,0,0,1,313.87,250c10.07,3.33,16.8,11.74,20.42,21.42,3.12,8.37,5.29,17.11,8.33,25.54,3.27,9.07,4.49,17.89-1,26.37-2.33,3.62-5.21,6.87-7.57,10.47s-4.13,7.48-6.71,10.85c-6,7.77-16.23,8.44-24.95,5.23-1.33-.49-13.34-5.17-11.18-6.47s16.59,3.73,19.15,3.75c10.28.1,14.94-5,20.1-13.22,4.5-7.18,11.83-15.14,11.08-24.18-.79-9.55-7.07-17.81-8.14-27.43-.28-2.51-.32-5-.37-7.57a4.5,4.5,0,0,0-.41-2,23.27,23.27,0,0,0-2.41-4.2,7.54,7.54,0,0,1-1-1.36,5.51,5.51,0,0,0-2.23-2.33,4.24,4.24,0,0,1-1.55-1.37,5.35,5.35,0,0,0-3.8-2.43,5.07,5.07,0,0,1-4.11-3.32,3,3,0,0,0-1.34-1.54c-3.27-1.94-6.31-3.81-10.2-4.11-2.84-.22-5.71,1.61-8.43,1.11-1.26-.23-2.25-1.2-3.48-1.57a17.39,17.39,0,0,0-4.5-.42c-6.9-.21-12.71,1.29-19.43,2.38-2.6.42-4.94,1.65-7.34,2.67a5.36,5.36,0,0,0-2,1.57,22.74,22.74,0,0,0-3.72,6.17c-.81,2-.37,2-3,2.18-6.56.48-11.8,8.23-14.38,13.59a10.91,10.91,0,0,0-1,8.18c1.13,3.67,5.23,8.24-.77,9.58-4,.88-7.28,3-6.95,7.43a13,13,0,0,0,5.24,9c2.18,1.58,4.46,2.74,5.42,5.4,1.58,4.38,1.66,8.76,4.58,12.59a16.91,16.91,0,0,0,10.76,6.49c2.53.41,1.67.06,2.87,2.22a19.87,19.87,0,0,0,6,6.19,2.13,2.13,0,0,0,1.19.42c2.65,0,5.29-.54,7.95-.4.85,0,1.62.41,2.46.39a7.6,7.6,0,0,0-.12-3.21c-.51-1.18-1.9-1.95-2.64-3a32.92,32.92,0,0,0-4-5.07c-1.54-1.45-3.38-2.67-4.55-4.47-1.55-2.41-12.66-9.63-6.28-11.61a7.89,7.89,0,0,1,2.76,0,1.88,1.88,0,0,1,1.36.69c1.56,1.71,3.15,3.4,4.73,5.09a2.93,2.93,0,0,0,.73.67,7,7,0,0,1,2.1,1.93A22.53,22.53,0,0,0,274,331a35.39,35.39,0,0,1,5,4.94,5.47,5.47,0,0,0,1.6,1.4,13.1,13.1,0,0,0-.29-3.44c-.44-3.35-1.18-7.68,1.91-10,2.25-1.73,4.34-3.91,7.27-2.42.35.18.67.42,1,.61a1.14,1.14,0,0,1,.62,1.13c.33,11.47-.7,22.88,0,34.39.36,5.63.36,11.28.45,16.92.08,5.47.75,11,.67,16.43a9.21,9.21,0,0,0,0,1.09,3.63,3.63,0,0,0,2.85,3.22c1.91.31,2.76-1.12,4-2.29,1.55-1.53,3.57-2.67,5.27-4.07,2.26-1.87,4.32-4.11,6.91-5.54,1.07-.59,6.73-2.81,6.12.12-.2.94-.47,1.87-.58,2.81a2.6,2.6,0,0,1-1,1.76c-3.88,3.4-7.49,7.13-11.54,10.34-4.62,3.66-10,4.31-10,11.15,0,8.51-2,17.2-.64,25.66.53,3.29.63,8.66,3.23,11.06,1.73,1.59,4.44,1.28,6.6,1.21,3.8-.13,7.61-.19,11.41-.35,2-.08,3.94-.06,5.9-.11s3.81.26,5.83.23c5.44-.1,10.83.15,16.29-.11,2.26-.11,5.89.74,8-.13,2.5-1,2.12-4.48,2.08-6.74-.07-3.27-.22-6.55-.3-9.82-.1-3.76.37-7.54-.17-11.27-.59-4.07-2.75-5.58-5.22-8.61-1.16-1.42-1.81-3.09-3.19-4.33-.7-.63-1.42-.62-1.86-1.54-.35-.74.1-1.77-.21-2.62-.51-1.4-2.87-2.73-2.7-4.34s2.42-2.09,3.54-1c.9.87,1.92,1.62,2.86,2.46h0c1.43,1.27,3.43,4.14,5.37,4.23.43-7.88-.71-15.77-.81-23.66-.06-4.57-.67-9.1-.94-13.66-.24-4,.41-7.9.35-11.87,0-2.19.34-4.29.22-6.49-.23-4.41.7-10-1.56-14a31.49,31.49,0,0,0-8.34,9.48c-1.08,2-3.79,7-1.37,8.93s6.4-1,8.92.18c3,1.36-3.07,3-4.39,3.16-12.2,1.75-7.28-12.24-3.31-17.91,5.28-7.55,13.11-14.79,12-24.88-.49-4.41-2.13-8.52-2.44-13a47.44,47.44,0,0,0-.77-6.93,19.11,19.11,0,0,0-2.08-6c-1.16-1.89-3.22-3.29-3.76-5.53s0-4.67-.44-6.95c-1.11-6-4.84-12.05-8.64-16.79-1.89-2.35-5-3.59-6.66-6a5.84,5.84,0,0,0-.81-1,1.67,1.67,0,0,1-.35-2.15,10.88,10.88,0,0,1,3.64-4.24c4.66-3.5,10.21-6.7,16.16-6.9,1.16,0,2.32,0,3.47,0a1.25,1.25,0,0,0,1-.42,37.51,37.51,0,0,1,3.84-3.29c4.85-3.84,13.19-2.71,19-3.08,2.55-.16,4.84-1.33,7.39-1.34a17.29,17.29,0,0,1,10.07,3.18c1.25.92,2.46,1.9,3.69,2.85,2.5,1.94,4,4.76,5.22,7.6a36.82,36.82,0,0,1,1.56,3.64c.38,1.19.07,2.59.47,3.71.63,1.77,2.75,2,4.19,3.45,1.74,1.76,3.75,3.25,5.29,5.2a6,6,0,0,0,.13-1,25.58,25.58,0,0,0,.25-5.34c0-2.45.1-4.89.15-7.34,0-1.16,0-2.32.07-3.47a26.85,26.85,0,0,0,0-3.27,31.4,31.4,0,0,1,0-4.27,51.32,51.32,0,0,0,.22-7.83c-.11-1.65-.32-3.29-.47-4.94a60.37,60.37,0,0,1,.23-7,1.92,1.92,0,0,1,.35-1.22,1.9,1.9,0,0,0,.35-1.3c.05-3.08-.07-6.15-.13-9.23-.13-6.72-.23-13.43-.4-20.15-.09-3.68.22-7.34.3-11,.12-5.59-.3-11.18.07-16.77.13-1.88.29-3.76.6-5.62a1.75,1.75,0,0,1,.3-.72,2.32,2.32,0,0,0,.33-1,19.45,19.45,0,0,0,.13-2.48c0-3.67-.09-7.35-.12-11,0-4.7,0-9.4,0-14.1,0-2.81.06-5.6.31-8.41s.42-5.94.49-8.91c.11-4.37,0-8.74,0-13.11a39.12,39.12,0,0,0-1.48-10.87,7.37,7.37,0,0,0-1.18-2.82,10.27,10.27,0,0,0-6-3.9c-1.75-.34-3.48-.78-5.24-1.1a58.12,58.12,0,0,0-8.34-1.13,18,18,0,0,1-3.56-.15,15.61,15.61,0,0,0-3.44-.38,6.56,6.56,0,0,1-1.75-.31,6.7,6.7,0,0,0-4.47-.1,1.21,1.21,0,0,1-.39.06,47.56,47.56,0,0,1-6.15,0c-1.32-.12-2.62-.31-4-.31-3.38,0-6.75,0-10.13,0-2,0-4,0-6,.11-3.37.17-6.74.23-10.12.12a23.12,23.12,0,0,0-3.76.11,28,28,0,0,1-6.63.25,32.1,32.1,0,0,0-4.26-.07,5.78,5.78,0,0,1-1.68-.14,14,14,0,0,0-4.83-.25,46.23,46.23,0,0,1-6.44.22,13.68,13.68,0,0,0-4.24.27,13.81,13.81,0,0,1-4.33.2,28.62,28.62,0,0,0-4.56-.14,18.51,18.51,0,0,1-3.56,0,7.12,7.12,0,0,0-4.08.45c-.26.13-.51,0-.77,0a31.76,31.76,0,0,0-5.14-.39c-5.1.17-10.19.18-15.29.16a5.55,5.55,0,0,0-2.05.26,1.06,1.06,0,0,1-.78,0,12.17,12.17,0,0,0-5.19-.52,17.42,17.42,0,0,1-2.87-.12,4.29,4.29,0,0,0-2.6.4,1.4,1.4,0,0,1-.95.13c-.75-.12-1.51-.2-2.26-.31a11.52,11.52,0,0,0-5.1,0,5.54,5.54,0,0,1-3.43-.1,4.25,4.25,0,0,0-2.14-.12,65.9,65.9,0,0,1-8,.67c-3.48.08-6.95-.1-10.42-.13-2,0-3.9.14-5.85.1-2.91-.06-5.82-.25-8.73-.32-4-.09-7.94-.14-11.91,0-2.94.11-5.88.25-8.83.33-1.09,0-2.18-.07-3.27-.12-3.95-.17-7.87.22-11.8.44a5.65,5.65,0,0,0-2.84.77c-1.89,1.23-3.67,2.6-5.46,4-.18.14-.4.25-.47.49a14.59,14.59,0,0,1-1.62,3.49,22.1,22.1,0,0,0-2.69,10.27c-.85,19.38,3.08,38.69,3.06,58.11,0,5.64-.08,11.27,0,16.91.15,12.31.8,24.6,1.16,36.91.45,15.7.06,31.42.12,47.13,0,2.78-1.24,25.54.57,25.86a.91.91,0,0,0,1-.37,4.79,4.79,0,0,0,.82-1.89c.13-.61.23-1.23.39-1.84a5,5,0,0,0-.07-2.64c-.35-1.24-.65-2.49-1-3.74-1.88-7,7-15.89,12.9-18.14,2.17-.84,5.56-.59,6.89-2.61.74-1.12.8-2.72,1.63-3.93,1.8-2.66,4.61-4.65,7.2-6.48a29.05,29.05,0,0,1,13-5.19c3.93-.5,7.9.18,11.7-1.07,5.32-1.75,13.06-3.67,18.62-2.19a4.72,4.72,0,0,1,3.21,2.83,20.73,20.73,0,0,1,1.37,4.33,2.94,2.94,0,0,0,3.84,2.28,6.68,6.68,0,0,1,1.05-.27,24.81,24.81,0,0,1,6.33-.05,11.57,11.57,0,0,1,7.11,3.59,8.61,8.61,0,0,0,1,1,11.56,11.56,0,0,1,2.71,3.51,7.39,7.39,0,0,1,1,2.27,4.54,4.54,0,0,0,.87,2.14c-.74.26-1.43.47-2.11.73-1.51.58-3,1.3-4.51,1.79a52,52,0,0,0-6.24,2.54c-3.87,1.8-4.67,4.65-7.21,7.71-1.82,2.2-5,1.4-7.45,2.55-10,4.74-14.38,15.61-13.13,26.15.53,4.47-2.46,4.69-4.65,7.94-5.79,8.63-4.6,17.12,1.64,25,1.47,1.85,3.43,2.73,4.63,4.76,1.89,3.2,2,7.93,2.8,11.52.49,2.15,4.57,6.24,6.51,7.23,1.25.64,4.65.84,4.39,3.07-.19,1.65-2.14,1.47-3.39,1.55-3.18.19-6.18-.3-9.33-.41-1.3,0-2.57.27-3.86.2-.09,0-.24,0-.27.06-.35.6-.72.19-1.06,0a1.86,1.86,0,0,1-1-1.18,5.37,5.37,0,0,1,1-4.59c-.78,1.13,1.69.4,1.52.37a38.81,38.81,0,0,0,4.48.66c0-.29-.13-.35-.31-.55a12.73,12.73,0,0,1-3.2-5.17c-1-3.21-3.69-2.49-4.29.38-.51,2.41.23,4.79.24,7.2,0,3.2.21,6.4.14,9.6a92,92,0,0,0-.07,9.29,33.83,33.83,0,0,0,.57,5.46c1.21,4.92,5.8-1.09,7.18-2.85,2.41-3.05,5-6.54,6.52-10.16a4,4,0,0,1,2.3-2.2,2.41,2.41,0,0,1,2.66.52,2,2,0,0,1,.57,2.26,14.87,14.87,0,0,1-1.73,4q-.92,1.36-1.85,2.7c-1.75,2.53-3.34,5.16-5,7.75a67.81,67.81,0,0,0-3.39,6.49,62.07,62.07,0,0,0-3.26,8.71,12.28,12.28,0,0,0-.62,3.8c0,6,.38,11.89.56,17.85.14,4.85.42,9.67.79,14.51.34,4.35,1,8.5,1.41,12.85.28,3-.24,7,1.12,9.67.9,1.8,2.27,1.68,4.17,1.73,3.33.09,6.58.48,9.89.67,4.36.25,8.73.4,13.1.29,2.36-.06,24.19,1.17,23.92-.83-.91-6.68-.24-13.51-.8-20.22-.41-4.91-.07-9.84-.32-14.75-.22-4.54-1.17-6.1-4.3-9.22-2.11-2.1-4.21-4.19-6.35-6.25-2-1.91-3.87-3.92-6-5.69-2.51-2.08-5.75-2.72-3.44-6.17,2.11-3.15,7.17.27,9.41,1.68C272.84,386.74,282,390.25,281.9,390.84Zm129.89-50.42c-1.62,1.41-1.71,3.54-2.93,5.2a17.08,17.08,0,0,1-4.42,4.06,25.06,25.06,0,0,1-9,3c-1.92.31-6.42,0-7.32,2.25a8.84,8.84,0,0,1-1.8,2.59c-3.19,3.58-9.74,4.29-14,2.47-3.58-1.52-11.46-5.43-11.38-9.77,0-2.37,0-1.81,2.06-2.75.16-.07,4,2.52,4.21,2.61,1.55.86,1.79,2.35,3,3.36,1.07.87,2.87,1.15,4.17,1.41,3,.62,10.8,2.6,11.33-2.24.08-.72.05-1.45.07-2.18s0-.86.88-.81c8,.41,15.23-4.13,19.49-10.72l2.15-3.33c.18-.28.44-.57.42-.88-.14-1.73,4.8-4.58,5.28-6.25,3-10.52,1.82-21.21,1.87-32,0-10.55-1.54-22-5.37-32-.83-2.17-4.82-4.22-6.18-6.09a5.55,5.55,0,0,0-1.9-1.87c-1.56-.77-3.8-1.2-4.54-2.72-.94-1.91.05-4.81-.84-6.93a20.33,20.33,0,0,0-4.21-5.74c-4.27-4.59-8.86-7.87-15.4-6.65-2.24.42-4.63,1.49-6.89,1.59s-3.94-1.47-6.06-1.36a19.39,19.39,0,0,0-6.66,1.27c-3,1.41-4.94,4.48-8,5.78-3.54,1.51-7.47-.84-11.07.77-1.32.59-2.29,1.89-3.47,2.7-1.79,1.22-5.53,2.58-4.31,5.28.81,1.8,3.53,2.62,5,3.79,2.58,2.07,4.41,5.42,6,8.3a31,31,0,0,1,3.17,10.26c.38,2.67-.69,5.85.74,8.24,1.56,2.6,4.81,3.8,6.28,6.5,1.83,3.38.61,7.46.54,11.06s1.8,6.27,2.62,9.69c.76,3.17.21,7-.15,10.23a14.72,14.72,0,0,1-1.61,5.11c-.58,1.17-2.89,4.29-2.37,5.66.67,1.78,3.49-.44,4.42-.87,2.21-1,3.93-1,5.71,1a2.71,2.71,0,0,1,.78,1.46c.1.64.15.65.78.37a25.17,25.17,0,0,0,6.79-4c.42-.38.86-.72,1.29-1.09,2.92-2.5,6-4.8,9.05-7.11a21.51,21.51,0,0,1,2.73-2,1.14,1.14,0,0,1,1-.21,5.55,5.55,0,0,1,2.17,1.35,1.9,1.9,0,0,1,.23,2.53,5.62,5.62,0,0,1-1,1.11,16.65,16.65,0,0,0-3.29,3.82,2.89,2.89,0,0,1-.57.69c-1.43,1.32-2.86,2.65-4.33,3.94a20.16,20.16,0,0,0-2.14,2.06,61.67,61.67,0,0,1-4.36,4.62,42,42,0,0,0-8.21,9.87,12.59,12.59,0,0,0-1.81,6.09c-.07,11.85.08,23.7-.11,35.54-.07,4.42-.17,8.86.2,13.29.24,2.93,0,5.89.06,8.83a13.11,13.11,0,0,0,.11,1.88c.31,2.1.27,4.22.45,6.33a57.08,57.08,0,0,0,.52,5.82c.19,1,.57,2,.79,3a26.21,26.21,0,0,1,.93,7.35,16.56,16.56,0,0,0,.14,2.67,26.38,26.38,0,0,0,.55,3.72,4.24,4.24,0,0,0,2.71,3.17,2.37,2.37,0,0,1,.7.37,7.37,7.37,0,0,0,5,1.64c3,0,6,0,8.93.18a73.17,73.17,0,0,0,9.22,0,48.47,48.47,0,0,0,11.12-1.88,18,18,0,0,0,6.51-3.46,6.94,6.94,0,0,0,1.52-1.42,12.91,12.91,0,0,0,2-4.59,63.13,63.13,0,0,0,1.06-8.16,30.09,30.09,0,0,0,0-5.26,30.26,30.26,0,0,1-.13-3.76c0-1.52,0-3-.06-4.56a27.35,27.35,0,0,1,.32-5.54c.32-2.07-.28-4.14.21-6.19-.1-7,0-14-.15-21-.08-3.34-.24-6.68-.33-10,0-1.16,0-2.32-.12-3.47a57.52,57.52,0,0,1-.33-7.52c.13-2.58-.06-5.17.29-7.73a8.33,8.33,0,0,0-.45-4.08C411.18,345.51,413.17,342.71,411.79,340.42ZM167.4,326.94a1.32,1.32,0,0,0-.09.72c0,1.65.18,3.3.12,5-.09,2.51.06,5,.14,7.54.76,23.25,1.58,46.5,1.56,69.76q0,10.07-.23,20.14a17,17,0,0,0,1.6,8.09c.88,1.77,3.19,5.92,5.34,6.34,6.26,1.23,13.39,1.33,20.05,1.15,3.45-.09,6.91-.24,10.36-.28,3.05,0,6.57.55,9.57-.08,4.45-.94,4.57-8.44,4.75-12,.27-5.26-.39-10.51-.52-15.77-.21-8.32-1-16.65-2-24.91-.6-4.85-1.08-9.55-4.42-13.45-2.37-2.77-5-5.33-7.56-7.87a9.14,9.14,0,0,1-1.37-1.68,47.62,47.62,0,0,0-3.23-4.64q-1.56-1.93-2.95-4a29.43,29.43,0,0,0-4.32-5.42,1.32,1.32,0,0,1-.4-1.07,4.47,4.47,0,0,1,1.1-2.7c.6-.81.78-.89,1.75-.57a6.34,6.34,0,0,1,2.95,1.95c1.5,1.81,3.18,3.46,4.76,5.2a43.77,43.77,0,0,0,5.36,5.43,15.06,15.06,0,0,1,1.47,1c.39.39.73,1,1.46.58.05,0,.18.06.27.1a7.22,7.22,0,0,0,1.51.48c.66.19.8.14.86-.51a8.14,8.14,0,0,1,1-3,5.81,5.81,0,0,0,.63-2.76q0-10.28,0-20.55a54.08,54.08,0,0,0-.42-7.22c-.34-2.59-.36-5.21-.77-7.79-.36-2.28-.54-4.59-.8-6.88a29,29,0,0,1-.26-4.3,2.29,2.29,0,0,1,1.28,1.07,5.1,5.1,0,0,0,.46.76,1,1,0,0,0,1.17.28c.44-.2.15-.6.09-.88-1.44-6.69-1.71-16.46,3.34-21.87,1.66-1.78,3.6-3,4.24-5.47,1.42-5.51-1.2-11.11,1.17-16.65,1.78-4.16,6.12-9.1,9.8-11.71,4-2.85,10.67-.19,13-5,1.33-2.66,1.51-5.2,4.3-6.88s6.59-2.23,9.73-3.14c-.2-2.24-2.56-4.73-4.29-6a3.64,3.64,0,0,0-.88-.43,19.88,19.88,0,0,0-6.79-1.29c-1.58,0-3.94.65-5.45,0-2.5-1-2-4.66-3.89-6.43-2.46-2.32-6.16-2.22-9.23-1.84a25.47,25.47,0,0,0-4.86.72c-1.75.58-3,1.94-4.59,2.72-3.51,1.7-7.83-.66-11.68.08-10.14,1.94-16.07,9.21-19.44,18.47-5.87-2-10.82-.22-14.43,4.91-4.21,6-3.33,13-.55,19.31-14.67,3.79-13.13,22.89-12.49,34.69a26.38,26.38,0,0,0,1.1,6.65c1.4,4.37,6,8.25,9.47,11.33a17.13,17.13,0,0,0,6.12,3.43c2.39.78,5.47.47,7.46,2.22,1.72,1.52,1.72,4,2.69,5.95a11.49,11.49,0,0,0,2.33,2.88,11.12,11.12,0,0,0,3.24,2.13,14.57,14.57,0,0,0,8,1.06,16.41,16.41,0,0,0,2.07-.47l1-.31c.41-.13,9.3-3.54,9.45-2.82.1.5-.68,4.22-.65,4.72,0,1.06.94-.06.14.72-.6.59-9.87,2.76-10.75,2.71-2.61-.13-5.23-.1-7.84-.16a9.74,9.74,0,0,1-2.34-.38,22.43,22.43,0,0,1-7.44-3.21c-2.41-1.86-2.21-7.8-5.21-8.49-2.74-.63-5.3-1.84-8-2.65a3,3,0,0,1-1.76-1.22,4.83,4.83,0,0,0-2.2-1.77,5.73,5.73,0,0,1-3.05-3.11A1.37,1.37,0,0,0,167.4,326.94Zm59.13,6.1c0-.83.08-1.42.09-2a2.6,2.6,0,0,0-.45-1.85C226.07,330.51,225.51,331.71,226.53,333Z" style="fill:#252122"/><path d="M274.61,244.21c-.12,0-5.54-9-6-9.55A17.59,17.59,0,0,0,263,230c-3.68-1.8-10.09-.07-11.67-4.81-2.85-8.54-13.42-8-20.56-7.22a9.2,9.2,0,0,0-1,.12,1.59,1.59,0,0,1-1.6-2.46,11.8,11.8,0,0,1,2.08-2.75,13.2,13.2,0,0,0,2.73-4.33c1.56-4.28,4.75-8.1,6.6-12.32,2.08-4.75,3.8-9.67,6.15-14.3,1.91-3.76,3.94-7.38,5.6-11.28,1.31-3.06,2.12-6.31,3.47-9.36s3.29-5.72,4.54-8.78c1.69-4.13,3-8.74,4.88-13,3.67-8.29,7.58-17,10.44-25.74,2.59-7.92,4.31-16,7.14-23.89,1.46-4,2.76-8.13,4-12.22a15,15,0,0,1,2-4.06c.58-.83,1.45-2.49,2.54-2.66s2.2,1.6,2.81,2.4a13.16,13.16,0,0,1,2.06,3.4,21.57,21.57,0,0,0,1.4,3.6c2.21,3.89,4.77,7.62,6.68,11.67,2,4.3,3.46,8.86,5.33,13.23a185.35,185.35,0,0,1,6.84,17.46c1.7,5.48,4.48,9.9,6.81,15a137.86,137.86,0,0,0,8.69,16.13c4.39,7,7.93,14.78,11.29,22.32a17.69,17.69,0,0,0,2.68,3.92c3.07,3.74,6.69,8,8.7,12.38,1.43,3.16,3.57,5.76,5.11,8.82,1.4,2.79,2.7,5.44,4.36,8.24,1.85,3.13,3.49,6.4,5.29,9.56.57,1,1.15,2,1.72,3,1.91,3.4-8.27,3.1-10,3.45a23.57,23.57,0,0,0-10.32,4.85c-3.27,2.43-7.27.9-11,1.94a30.39,30.39,0,0,0-14.4,8.46c-1.2,1.22-4.06,5.67-3.75,7.51-6-2.48-9.5-7.16-16.34-5.17-2.67.78-5.93,3.1-8.69,1.65-2.43-1.27-4.41-.81-7.24-1.24C282.68,242.71,280,242.39,274.61,244.21Zm87.8-24.32c.27-.31-2.39-5.08-2.57-5.42-3.78-7.62-8-15.2-12.4-22.55-2.11-3.52-4.2-7.07-6.45-10.51s-5.07-6.52-6.77-10.27c-1-2.25-1.36-4.77-2.47-7-1.25-2.49-3.26-3.73-5.49-5.26a2.65,2.65,0,0,1-1.2-1.29,5.05,5.05,0,0,0-1.42-2l-2.37-2.41a9.23,9.23,0,0,0-3.65-2.78c-.66-.21-1.09-.12-1.27.59s-.28,1.42-.41,2.14a6.46,6.46,0,0,1-1.15,3.32,1.48,1.48,0,0,1-2.17.34,11.81,11.81,0,0,1-1.2-.88c-1.33-1.09-2.63-2.21-4-3.3-.83-.69-1.62-.41-1.77.66a11.05,11.05,0,0,0-.22,2.17,15.21,15.21,0,0,1-1,5.83c-.26.75-.5.92-1.29,1a4,4,0,0,1-3.19-1c-.74-.66-1.49-1.31-2.18-2a8.94,8.94,0,0,0-1.24-1.14,58.25,58.25,0,0,0-5.24-3.57c-.9-.49-1.8-1-2.71-1.42s-1.11-.44-1.7.41A58.44,58.44,0,0,0,283,159a.59.59,0,0,1-1,.26,22.83,22.83,0,0,1-4.2-3c-.76-.78-1.63-1.45-2.37-2.26-.54-.6-1-.48-1.48.25a1.89,1.89,0,0,1-.44.53,15.16,15.16,0,0,0-2.48,2.69,5.81,5.81,0,0,1-2.93,2.27,3.73,3.73,0,0,0-1.34.83c-1.52,1.27-3.05,2.53-4.46,3.94a4.23,4.23,0,0,1-4.31,1.35c-.38-.1-.53,0-.65.38a27.06,27.06,0,0,0-1,2.8c-1.7,6.55-5.1,12.79-7.95,18.9q-2.61,5.59-5.37,11.1c-1.61,3.2-4.51,6.9-5.16,10.44a3.87,3.87,0,0,1-1,2,2.47,2.47,0,0,0-.39.57c-.51,1-.06,1.81,1,1.74a20.5,20.5,0,0,1,12.22,2.89,12.91,12.91,0,0,1,3.93,3.84c.77,1.19,1.11,3,2.12,4,2,2,6,1.67,8.45,3.14,3,1.8,9.51,5.38,10.75,9.73,1.58,5.52,5.51,1.62,10.34,2.28s9,2.75,14.07,2.28c3.14-.3,8.08-3.68,11.24-3,2.45.5,4.95,2.08,7.51,1.61,5.27-1,8.27-7.94,13.35-10s11-.15,16.2-2.3c5.31-2.22,9-6.5,14.66-8.31ZM262,157.88c3.06-.26,5.6-3.3,8.21-4.71a16.17,16.17,0,0,0,4.23-3.57c2.67-3,5.64,7.09,8.16,3.91,1.16-1.46,2.39-3.81,4.41-4.19,2.65-.49,6.56,3.19,8.64,4.42,1,.6,3.15,2.26,4.35,2.29,2.58.07,3.15-3.73,3.62-5.56.26-1,.38-3,1-3.79,2-2.51,5.55,2.46,7.22,3.37s2.43-1.73,3-2.82c.92-1.64,6.79-.55,5.61-2.56-.1-.17-.22-.33-.33-.5a5.9,5.9,0,0,1-.86-2.2,32.92,32.92,0,0,0-2.17-7.09c-2.76-7-6.48-13.67-9.44-20.63-3.64-8.56-7.73-16.95-11.21-25.58-1.24-3.09-2.5-6.18-3.74-9.28a4.1,4.1,0,0,0-.91-1.52c-.94-.89-1.8-.76-2.39.39a2.76,2.76,0,0,0-.31.94,12.63,12.63,0,0,1-.63,2.69,5.8,5.8,0,0,0-.34,2,6.28,6.28,0,0,1-.3,1.95c-.77,2.63-1.53,5.26-2.31,7.89-1.29,4.33-2.14,8.77-3.74,13-3.26,8.68-6.45,17.4-9.78,26.06-1.7,4.42-3.42,8.82-5.22,13.2C265.36,149.72,262.6,154,262,157.88Z" style="fill:#252122;fill-rule:evenodd"/><path d="M223.15,278.07c0,.11-.06.19-.16.16s-.15-.17-.13-.29.07-.12.11-.12S223.15,277.94,223.15,278.07Z" style="fill:#252122;fill-rule:evenodd"/></g><path d="M328.51,172.24c2.16,8.05,7,14.43,10.85,21.29,2.35,4.18,6.2,6.73,8.45,11.1,2,3.81,5.62,9.17,9.34,11.24" style="fill:#252122;fill-rule:evenodd"/><path d="M340.92,198.37c1,3.57,3.1,6.4,4.81,9.45,1,1.86,2.75,3,3.75,4.93.87,1.69,2.49,4.07,4.14,5" style="fill:#252122;fill-rule:evenodd"/><path d="M373.52,243c1.44,0,2.72-1,4.18-.93,1.81.09,3.17,1.59,4.61,2.51s3,.82,4.56,1.33a14.72,14.72,0,0,1,4.1,2.58,7,7,0,0,1,1.67,1.91s-4.59-3.61-6.25-3.06a8.82,8.82,0,0,1-6.07-1.1c-1-.83-3-2.9-4.14-2.62A4.55,4.55,0,0,1,373.52,243Z" style="fill:#252122"/><path d="M237.13,307.15c.82-1.18.7-2.82,1.58-4,1.1-1.45,3.1-1.72,4.67-2.4s2.35-2,3.67-3a14.75,14.75,0,0,1,4.44-1.94,7,7,0,0,1,2.52-.31s-5.57,1.76-6,3.44a8.82,8.82,0,0,1-4.33,4.4c-1.23.33-4.1.88-4.49,1.95S237.13,307.15,237.13,307.15Z" style="fill:#252122"/><path d="M199.84,246.07c.91-1.11.92-2.75,1.89-3.84,1.21-1.36,3.22-1.47,4.84-2s2.5-1.81,3.89-2.73A14.76,14.76,0,0,1,215,235.9a7,7,0,0,1,2.53-.11s-4.61,1.08-5,2.32-5,4-5.59,4.34-3.41,0-4.14.21S199.84,246.07,199.84,246.07Z" style="fill:#252122"/><path d="M305,102.34l-.08.14" style="fill:#252122"/></svg>