<svg xmlns="http://www.w3.org/2000/svg" viewBox="0 0 600 600"><title>bsidecircle</title><g id="aa57114c-2c7a-45b5-9e91-050fb9355c09" data-name="Layer 15"><circle cx="300" cy="300" r="235.34" style="fill:#fff;stroke:#000;stroke-miterlimit:10;stroke-width:2px"/><path d="M519.62,389.33a4.83,4.83,0,0,1,.47-.78,5.24,5.24,0,0,1,.31-.81q-2.61-2.44-5.2-4.9c-4.69-4.49-9.42-9.16-15.27-12s-13.17-3.53-18.67-.07c-7.67,4.83-17.5-.77-24.55-6.47a341.41,341.41,0,0,1-51.61-51.78c-5.62-7-11.35-14.53-19.65-17.93q28.38,32.81,59.83,62.8c10.78,10.28,25.24,21,39.17,15.78,10.28-3.89,20.77,4.5,28.72,12.08q2.85,2.72,5.73,5.41A5,5,0,0,1,519.62,389.33Z"/><path d="M168.54,328.75c-9,7.48-17.6,15.87-28.45,20.25-20,8.09-44,1.09-63.51,10.25-1.79.84-3.57,1.71-5.34,2.58a5.14,5.14,0,0,1,.37,1.92c0,.14,0,.28,0,.42v-.06s0,.06,0,.09a5.1,5.1,0,0,1,.57.93,117.6,117.6,0,0,1,27.28-7.46c15.09-2.08,31.07-.74,44.9-7.14,5.77-2.67,10.86-6.57,15.9-10.43,16.74-12.84,59.67-55.21,76.41-68C221.66,279.4,181.37,318.07,168.54,328.75Z"/><path d="M244.89,374.25c-3.19,5.51-8.51,11.06-14.82,10.17-11.85-1.68-23.86-3.37-35.74-1.9-7.3.9-14.43,3-21.76,3.65-15,1.37-29.9-3.26-44.71-6.23s-31.13-4.07-44.16,3.58c-1.55.91-3.11,1.78-4.68,2.66a4.88,4.88,0,0,1,.33.61c.09.13.19.25.28.38a3.67,3.67,0,0,1,.51,1.14c4.17-1.76,8.35-3.48,12.57-5.11,5.48-2.13,11.34-4.18,17.12-3.08l30.94,5.9c12.16,2.32,24.72,4.64,36.83,2.09a134.8,134.8,0,0,1,55.4,0c2.47.52,4.8-1.26,6.61-3a69.35,69.35,0,0,0,16.76-25.76C250.76,362.34,248.08,368.74,244.89,374.25Z"/><path d="M511.32,407.47a5.3,5.3,0,0,1,.43-1.34,65.06,65.06,0,0,1-7.65-14.62c-2.27-6.15-10.1-8.7-16.48-7.19s-11.58,6-16.39,10.47c5.05-3.46,10.34-7,16.41-7.9s13.11,1.8,15.19,7.57a63.69,63.69,0,0,0,7.54,14.62,4.67,4.67,0,0,1,.55-.75A5.05,5.05,0,0,1,511.32,407.47Z"/><path d="M254.72,344.55c-4-3.1-5.17-8.77-4.26-13.73s3.56-9.39,6.17-13.7l11.08-18.33,4.64-7.67,25.25-41.78c2.84-4.7,6.09-9.74,11.29-11.52a224.9,224.9,0,0,0-26.56,45.52c-5.42,12.46-15.2,22.43-22.55,33.86-2.87,4.47-5.44,9.35-5.88,14.64s1.7,11.09,6.34,13.69C258.51,346.52,256.28,345.77,254.72,344.55Z"/><path d="M266.44,247.57a437.14,437.14,0,0,1,53.62-36.42,68.51,68.51,0,0,1,24.21,28.19c5.56,12,18.63,19.57,23.22,32a133.93,133.93,0,0,1-27.54-35,61.77,61.77,0,0,0-16.07-19c-1.53-1.2-3.34-2.39-5.27-2.1-2.33.34-3.76,2.62-5.43,4.28-4.08,4.07-10.33,4.78-15.59,7.14C286.07,231.91,278.85,245.28,266.44,247.57Z"/><path d="M424,362.62c18.16,9,31.16,24.45,39.88,35.33-1.59,1.23-3.71-.62-4.88-2.26A127.24,127.24,0,0,0,424,362.62Z"/><path d="M397.29,359.78c-2.73,1.52-6.14-.37-8.23-2.68s-3.81-5.21-6.68-6.43c-1.37-.58-2.92-.73-4.18-1.52-2.8-1.75-3-5.67-2.93-9,.18-6.09,0-14.57.16-20.66,1.32-.65,2.21,18.34,2.05,24.85-.09,3.94,7.08,3.11,9,6.55A19.57,19.57,0,0,0,397.29,359.78Z"/><path d="M328.51,233l12.58,29.16A84.08,84.08,0,0,1,326.67,232C327.11,231.3,328.17,232.17,328.51,233Z"/><path d="M325.45,292.47c-1.34,3.2-4.41,5.51-3.17,9.12a6.8,6.8,0,0,0,3.62,3.94,20,20,0,0,0,17.32-.16c2.81-1.09,2.1-1.11,5.74-1.93-5.48,3-11.32,6.18-17.58,6-4.44-.16-9.08-2.4-10.86-6.47S321.05,293.13,325.45,292.47Z"/><path d="M366.76,288.75c5.09,1.3,12.34,2.76,17,5.25C378.35,294.08,370.66,292.45,366.76,288.75Z"/><path d="M266.44,247.57c-3.62,3.8-15,12.47-19.8,14.48C250,258,261.44,249.25,266.44,247.57Z"/><path d="M375.06,276.9a7.22,7.22,0,0,1-6.91-4.08,31.45,31.45,0,0,1,7.13,4Z"/><path d="M370,308.8c1.71,1,4.44,6.34,4.67,8.32C374.71,317.13,369.21,310.89,370,308.8Z"/><path d="M355.29,301.48c1.5-1.11,9.33-.22,13,3.93C358.57,300.53,355.84,301.69,355.29,301.48Z"/><path d="M421.44,361.8c-5.4-4.39-12.67-4.5-19.4-2.52C411.74,359.72,412.29,358,421.44,361.8Z"/><path d="M176.07,469.21c-3.48-.2-7.64-.07-9.53,2.87-1.14,1.78-1.32,4.43-3.26,5.25-1.59-.94-.81-3.36.15-4.94L174,455a4.16,4.16,0,0,1,1.11-1.35,2.83,2.83,0,0,1,3.45.6,7.83,7.83,0,0,1,1.68,3.36,98.76,98.76,0,0,1,3.56,17.11c.13,1.14.08,2.59-1,3.05a5.13,5.13,0,0,1-3-5.87c.44-1.72-2-2.62-3.74-2.72m1-3.72a1.59,1.59,0,0,0,1.55-2.09,17.35,17.35,0,0,0-1.57-6,32.67,32.67,0,0,0-5.65,8.15A18.22,18.22,0,0,0,177.05,465.48Z"/><path d="M256.24,469.21c-3.48-.2-7.64-.07-9.53,2.87-1.14,1.78-1.32,4.43-3.26,5.25-1.59-.94-.81-3.36.15-4.94L254.2,455a4.16,4.16,0,0,1,1.11-1.35,2.83,2.83,0,0,1,3.45.6,7.83,7.83,0,0,1,1.68,3.36A98.76,98.76,0,0,1,264,474.74c.13,1.14.08,2.59-1,3.05a5.13,5.13,0,0,1-3-5.87c.44-1.72-2-2.62-3.74-2.72m1-3.72a1.59,1.59,0,0,0,1.55-2.09,17.35,17.35,0,0,0-1.57-6,32.67,32.67,0,0,0-5.65,8.15A18.22,18.22,0,0,0,257.22,465.48Z"/><path d="M310,453a4.44,4.44,0,0,1,3.54-1.06,10.77,10.77,0,0,1,6,1.74,5.67,5.67,0,0,1,2.45,5.48c-.76,3.73-5.48,4.87-8.16,7.56-3.12,3.14-3.19,8.1-3.05,12.53a3.89,3.89,0,0,1-3.07-2.87,11.42,11.42,0,0,1-.16-4.43l1.54-16.05A5,5,0,0,1,310,453m9.62,5.37a7.85,7.85,0,0,0-3.52-2.4c-1.4-.33-3.16.43-3.35,1.86l-.88,6.41A12.07,12.07,0,0,0,319.62,458.33Z"/><path d="M434.63,469.66a4.59,4.59,0,0,0-1.37-1,8.31,8.31,0,0,0-12,6.64c-.11,1.2-2.18,1-2.61-.09s.2-2.35.8-3.39l9.71-16.63a4.35,4.35,0,0,1,1.91-2.05,3,3,0,0,1,3.29,1.25,8.64,8.64,0,0,1,1.21,3.56L439,476.7a1.77,1.77,0,0,1,0,.78c-.32,1.15-2.18.48-2.67-.61-1-2.29,0-5.35-1.69-7.21m-7.64-5.3c-.21.42-.38,1,0,1.29a1.07,1.07,0,0,0,.75.14l6.09-.4a9.74,9.74,0,0,0-2.19-7.87A32.14,32.14,0,0,0,427,464.36Z"/><path d="M291,454.31a6.36,6.36,0,0,1,2.92,2c1.42,2,.42,4.95-1.36,6.65s-4.16,2.62-6.25,3.93-4,3.35-4,5.82c0,1.07.38,2.11.41,3.17a2.51,2.51,0,0,1-1.46,2.59c-2.21-1.83-2.17-5.17-1.94-8l1.2-15a3.22,3.22,0,0,1,1-2.51,3,3,0,0,1,1.86-.35,23.2,23.2,0,0,1,7.68,1.69m1.32,4.74a10.15,10.15,0,0,0-8.32-2.86,8,8,0,0,0,.34,8.23A13.28,13.28,0,0,0,292.37,459Z"/><path d="M339.43,471.92a45.24,45.24,0,0,0,9.65,2.62l1,1.86a28.7,28.7,0,0,1-11.1.83,3.3,3.3,0,0,1-1.66-.53,3.49,3.49,0,0,1-.91-2.84,126.15,126.15,0,0,1,.89-16.07c.17-1.39.48-3,1.69-3.67a4.3,4.3,0,0,1,2-.43,29.45,29.45,0,0,1,4.86.21c1.16.15,2.46.47,3,1.5s-.66,2.63-1.62,2a4.83,4.83,0,0,0-7.58,4.17,3.3,3.3,0,0,0,1.49,2.77c1.42.8,4,.67,3.9,2.3-1.28.84-2.93.91-4.3,1.6S338.35,470.83,339.43,471.92Z"/><path d="M380.2,476.41a30.85,30.85,0,0,1-8,.94c-2.72.08-6-.19-7.22-2.64a7.11,7.11,0,0,1-.4-3.42l.8-16.28c.06-1.29,2-1.66,3-.8a4.94,4.94,0,0,1,1.17,3.57,60.36,60.36,0,0,1-.82,12.88c-.28,1.62,1.31,3.05,2.93,3.35s3.27-.16,4.9-.36,3.5,0,4.6,1.18C381.79,475.28,380.94,476.18,380.2,476.41Z"/><path d="M222.15,453.26c2.85-1.71,7.14,1.08,6.73,4.39a3.5,3.5,0,0,1-2,.23,3.13,3.13,0,0,0-2.37-2.91A29.4,29.4,0,0,0,219,471.8a4.78,4.78,0,0,0,.31,2.05c1,2.23,4.38,1.87,6.47.58a2.49,2.49,0,0,1-1,3,5.42,5.42,0,0,1-6.2,0,8.45,8.45,0,0,1-3.32-5.54c-.93-5.09,1.52-10.13,3.9-14.72A9,9,0,0,1,222.15,453.26Z"/><path d="M393.61,471l.69-16.83a3,3,0,0,1,3,2,8.74,8.74,0,0,1,.3,3.87l-.74,10.2c-.09,1.28-.07,2.82,1,3.52a3.66,3.66,0,0,0,2,.4l7.48,0a1.25,1.25,0,0,1-.19,1.87,3.62,3.62,0,0,1-2.05.56l-4.75.32c-2.1.14-4.56.14-5.88-1.51C393.53,474.21,393.55,472.51,393.61,471Z"/><text transform="translate(180.81 158.48)" style="font-size:84px;font-family:FiraSans-Thin, Fira Sans">B<tspan x="49.31" y="0" style="letter-spacing:-0.045003255208333336em">-</tspan><tspan x="79.04" y="0">Side</tspan></text><text transform="translate(95.48 248.98)" style="font-size:71px;font-family:FiraSans-Thin, Fira Sans">book</text><text transform="translate(369.96 248.98)" style="font-size:71px;font-family:FiraSans-Thin, Fira Sans">club</text></g></svg>